Coordinates
version=1
nRows=21
nColumns=33
inDegrees=yes

Units are S.I. units (second, meters, Newtons, ...)
Angles are in degrees.

endheader
time	ground_thorax_rot_x	ground_thorax_rot_y	ground_thorax_rot_z	ground_thorax_tx	ground_thorax_ty	ground_thorax_tz	clav_prot_r	clav_elev_r	scapula_abduction_r	scapula_elevation_r	scapula_upward_rot_r	scapula_winging_r	shoulder_elv_r	plane_of_elev_r	axial_rot_r	elbow_flexion_r	pro_sup_r	wrist_flex_r	wrist_dev_r	clav_prot_l	clav_elev_l	scapula_abduction_l	scapula_elevation_l	scapula_upward_rot_l	scapula_winging_l	shoulder_elv_l	plane_of_elev_l	axial_rot_l	elbow_flexion_l	pro_sup_l	wrist_flex_l	wrist_dev_l
      4.76000000	    -39.00432044	    -10.36644046	     11.33194071	   -150.94943250	    806.67074491	      6.05253087	      6.44287322	    -45.00000000	     45.00000000	    -45.00000000	    -15.00902438	  -3337.27129608	  -1372.83786750	     31.54247415	     63.89990761	   2172.31250159	     24.01919864	     19.27655759	      9.04335170	     -5.40367127	     41.70502708	    -45.00000000	    -45.00000000	     45.00000000	   3002.38988741	  -6399.40038396	     10.92184654	    179.99999979	     11.37499220	   -143.84565840	      9.03024653	    -13.47318532
      4.77000000	    -38.98970600	    -10.27144055	     11.39898059	   -153.71761192	    808.35917960	      5.95275422	      6.58917344	    -45.00000000	     45.00000000	    -45.00000000	    -15.30895727	  -3337.48147524	  -1372.64650789	     31.63237827	     63.87391152	   2172.28430857	     23.66139552	     19.28545501	      8.94901053	     -5.34867692	     41.63349737	    -45.00000000	    -45.00000000	     45.00000000	   3002.35361276	  -6399.06367889	     10.98287721	    179.99999979	     11.42498230	   -144.56396157	      9.10809606	    -13.46489039
      4.78000000	    -38.97460085	    -10.07804848	     11.36989525	   -156.45834198	    810.05405928	      5.86317660	      6.62224082	    -45.00000000	     45.00000000	    -45.00000000	    -15.37650535	  -3337.70347994	  -1372.35141410	     31.71114930	     63.83720072	   2172.35683872	     23.28633558	     19.32588644	      8.87684802	     -5.28907879	     41.61861746	    -45.00000000	    -45.00000000	     45.00000000	   3002.30053322	  -6398.79208045	     11.04136755	    179.99999979	     11.53222768	   -145.24564026	      9.23181141	    -13.48073923
      4.79000000	    -39.05644731	     -9.57888210	     11.01753575	   -159.16962450	    811.75225908	      5.78661382	      6.20499053	    -45.00000000	     45.00000000	    -45.00000000	    -14.69436803	  -3337.75493669	  -1372.03987665	     31.44820810	     63.75228480	   2172.43685585	     23.03514104	     19.43268532	      8.99021177	     -5.22898703	     41.90664436	    -45.00000000	    -45.00000000	     45.00000000	   3002.19178461	  -6398.75803359	     11.19353357	    179.99999979	     11.55290163	   -145.74261434	      9.57639277	    -13.72171547
      4.80000000	    -39.02637449	     -9.49783126	     11.10896735	   -161.85113999	    813.44939055	      5.72601024	      6.39900284	    -45.00000000	     45.00000000	    -45.00000000	    -15.03855003	  -3338.07823503	  -1371.80649610	     31.61311378	     63.84348513	   2172.52923152	     22.72960042	     19.44633730	      8.81941401	     -5.18195754	     41.75103267	    -45.00000000	    -45.00000000	     45.00000000	   3002.14434291	  -6398.41019765	     11.20072365	    179.99999979	     11.62281953	   -146.27303202	      9.60107510	    -13.68041823
      4.81000000	    -39.00527407	     -9.38153993	     11.13223254	   -164.50428436	    815.14313458	      5.68385192	      6.51702257	    -45.00000000	     45.00000000	    -45.00000000	    -15.30879836	  -3338.33914309	  -1371.57125249	     31.71653509	     63.82365920	   2172.60511770	     22.39706973	     19.46744830	      8.72606438	     -5.13652623	     41.69614267	    -45.00000000	    -45.00000000	     45.00000000	   3002.09324385	  -6398.10604614	     11.24689101	    179.99999979	     11.69592678	   -146.80516343	      9.65916102	    -13.66664918
      4.82000000	    -39.02302823	     -9.16223689	     11.00297368	   -167.12685979	    816.82745102	      5.66233638	      6.43085203	    -45.00000000	     45.00000000	    -45.00000000	    -15.23629247	  -3338.44704509	  -1371.32559028	     31.65635814	     63.72707847	   2172.57242445	     22.09909574	     19.49775892	      8.71714550	     -5.07972608	     41.69165070	    -45.00000000	    -45.00000000	     45.00000000	   3002.03470466	  -6397.85339028	     11.28769234	    179.99999979	     11.72671028	   -147.25752258	      9.83406115	    -13.77135563
      4.83000000	    -38.97362412	     -9.14639518	     11.15168280	   -169.72274479	    818.50027598	      5.66291530	      6.79251994	    -45.00000000	     45.00000000	    -45.00000000	    -15.91130319	  -3338.84013572	  -1371.12810361	     31.95267677	     63.81082393	   2172.64922291	     21.67977907	     19.47615102	      8.52730822	     -5.03472272	     41.51819133	    -45.00000000	    -45.00000000	     45.00000000	   3001.99105318	  -6397.48987273	     11.28379429	    179.99999979	     11.80026545	   -147.75224226	      9.77767365	    -13.67119569
      4.84000000	    -39.00113604	     -8.83293467	     10.92121320	   -172.29087744	    820.15690029	      5.68596411	      6.52453893	    -45.00000000	     45.00000000	    -45.00000000	    -15.58315421	  -3338.85741102	  -1370.85262337	     31.73972291	     63.67230017	   2172.58633802	     21.34952869	     19.52573905	      8.61075194	     -4.98736471	     41.64009282	    -45.00000000	    -45.00000000	     45.00000000	   3001.91061785	  -6397.33619641	     11.36610821	    179.99999979	     11.85052167	   -148.11152666	     10.03916153	    -13.85685369
      4.85000000	    -38.96797205	     -8.75230305	     10.94558933	   -174.82859010	    821.79169503	      5.73066694	      6.68552037	    -45.00000000	     45.00000000	    -45.00000000	    -15.93431221	  -3339.14520134	  -1370.65509009	     31.84743980	     63.75554924	   2172.65923493	     20.94038215	     19.53341287	      8.47552606	     -4.94913548	     41.53313808	    -45.00000000	    -45.00000000	     45.00000000	   3001.86532128	  -6397.01105114	     11.37005288	    179.99999979	     11.90423601	   -148.45465400	     10.06971957	    -13.86171154
      4.86000000	    -38.95544886	     -8.58482471	     10.86787873	   -177.33807448	    823.40366174	      5.79495369	      6.71128295	    -45.00000000	     45.00000000	    -45.00000000	    -16.08892900	  -3339.32758644	  -1370.43863421	     31.86654783	     63.70401393	   2172.60359511	     20.51407868	     19.53412415	      8.42301914	     -4.90693242	     41.50175971	    -45.00000000	    -45.00000000	     45.00000000	   3001.78674151	  -6396.73875767	     11.40314232	    179.99999979	     11.97081040	   -148.76198329	     10.17342226	    -13.93322555
      4.87000000	    -38.92287531	     -8.45958630	     10.84806015	   -179.82194867	    824.99271502	      5.87581854	      6.80832087	    -45.00000000	     45.00000000	    -45.00000000	    -16.38480685	  -3339.56065153	  -1370.22113594	     31.93633993	     63.72721479	   2172.61477361	     20.03810124	     19.54010287	      8.35654596	     -4.86317310	     41.44152637	    -45.00000000	    -45.00000000	     45.00000000	   3001.73860390	  -6396.47008785	     11.40227016	    179.99999979	     12.04703744	   -149.04868341	     10.23390302	    -13.97578078
      4.88000000	    -38.89483660	     -8.41839618	     10.91830681	   -182.27736096	    826.55535873	      5.96946806	      7.05314590	    -45.00000000	     45.00000000	    -45.00000000	    -16.94638253	  -3339.85864605	  -1370.03350589	     32.08651445	     63.78205071	   2172.66109113	     19.45023081	     19.53753560	      8.28027052	     -4.81862359	     41.34073848	    -45.00000000	    -45.00000000	     45.00000000	   3001.72223448	  -6396.14002401	     11.41625769	    179.99999979	     12.08073082	   -149.35426721	     10.20920086	    -13.96451664
      4.89000000	    -38.91028276	     -8.13597204	     10.68306380	   -184.70286846	    828.08920583	      6.07191668	      6.89471750	    -45.00000000	     45.00000000	    -45.00000000	    -16.85944226	  -3339.97132571	  -1369.85516676	     32.02309853	     63.62560530	   2172.55544090	     18.94946802	     19.55482331	      8.26433805	     -4.77855701	     41.33619658	    -45.00000000	    -45.00000000	     45.00000000	   3001.57252878	  -6395.93003306	     11.42042244	    179.99999979	     12.22076035	   -149.58902220	     10.40000143	    -14.12461668
      4.90000000	    -38.84170145	     -8.14377024	     10.83114440	   -187.10245272	    829.59463863	      6.17978691	      7.18269452	    -45.00000000	     45.00000000	    -45.00000000	    -17.50349432	  -3340.26761842	  -1369.65095871	     32.14407139	     63.80846428	   2172.60031907	     18.35849800	     19.55552471	      8.18130404	     -4.73434007	     41.25501308	    -45.00000000	    -45.00000000	     45.00000000	   3001.62504575	  -6395.59697795	     11.41197549	    179.99999979	     12.25033128	   -149.84846791	     10.33594833	    -14.10235617
      4.91000000	    -38.83808201	     -7.90748664	     10.68035483	   -189.47049370	    831.06685621	      6.28979734	      7.05747370	    -45.00000000	     45.00000000	    -45.00000000	    -17.62727466	  -3340.49586294	  -1369.49859566	     32.17104129	     63.65657136	   2172.56685374	     17.81144225	     19.56928761	      8.06173921	     -4.68686792	     41.23050101	    -45.00000000	    -45.00000000	     45.00000000	   3001.50658637	  -6395.36138702	     11.37074893	    179.99999979	     12.35409711	   -150.06822134	     10.46835440	    -14.24802193
      4.92000000	    -38.83563273	     -7.84503577	     10.68603058	   -191.81093756	    832.50721360	      6.40001685	      7.07470346	    -45.00000000	     44.86571677	    -45.00000000	    -18.14482693	  -3340.59573655	  -1369.31607779	     32.21165795	     63.74728616	   2172.55305213	     17.30304614	     19.57679948	      7.95277894	     -4.63748095	     41.18361596	    -45.00000000	    -45.00000000	     45.00000000	   3001.44945090	  -6395.02031515	     11.36835874	    179.99999979	     12.45249510	   -150.27731088	     10.48478076	    -14.30231307
      4.93000000	    -38.81849108	     -7.64219981	     10.63351750	   -194.11522590	    833.91080121	      6.50856019	      6.99795536	    -45.00000000	     44.63902013	    -45.00000000	    -18.60297517	  -3340.65805643	  -1369.08952418	     32.25073291	     63.79174747	   2172.48847952	     16.83901130	     19.58696034	      7.85434707	     -4.57898712	     41.16768733	    -45.00000000	    -45.00000000	     45.00000000	   3001.34366784	  -6394.80584305	     11.31770595	    179.99999979	     12.57878707	   -150.47026608	     10.55265394	    -14.40170963
      4.94000000	    -38.81680560	     -7.57077517	     10.72339364	   -196.38346153	    835.27839929	      6.61519780	      7.11158392	    -45.00000000	     44.41101214	    -45.00000000	    -19.21506282	  -3340.80943587	  -1368.92569424	     32.31152094	     63.88951200	   2172.52953359	     16.37455617	     19.60959584	      7.77837824	     -4.53259367	     41.14410442	    -45.00000000	    -45.00000000	     45.00000000	   3001.32944254	  -6394.50225923	     11.34661963	    179.99999979	     12.65082018	   -150.67471927	     10.52783847	    -14.43288851
      4.95000000	    -38.81100739	     -7.45589483	     10.67357177	   -198.61082425	    836.60829685	      6.71988794	      7.08431728	    -45.00000000	     44.20379085	    -45.00000000	    -19.73276482	  -3340.86744997	  -1368.75233903	     32.36643793	     63.90073725	   2172.50987984	     15.94566944	     19.62478073	      7.68394544	     -4.48189762	     41.12272673	    -45.00000000	    -45.00000000	     45.00000000	   3001.27503640	  -6394.21307356	     11.32064154	    179.99999979	     12.79001967	   -150.87516833	     10.55891908	    -14.50211481
      4.96000000	    -38.81923089	     -7.33078593	     10.66988768	   -200.79544726	    837.89930178	      6.82351715	      7.08239121	    -45.00000000	     43.99409901	    -45.00000000	    -20.23772786	  -3340.97068109	  -1368.57870941	     32.41309046	     63.96827794	   2172.49573380	     15.56730247	     19.63455218	      7.57301941	     -4.42360045	     41.09069338	    -45.00000000	    -45.00000000	     45.00000000	   3001.20161423	  -6393.93157090	     11.30293954	    179.99999979	     12.89284373	   -151.07813945	     10.57359372	    -14.56672051
